<?xml version="1.0" standalone="no"?>
<!DOCTYPE svg PUBLIC "-//W3C//DTD SVG 20010904//EN"
 "http://www.w3.org/TR/2001/REC-SVG-20010904/DTD/svg10.dtd">
<svg version="1.0" xmlns="http://www.w3.org/2000/svg"
 width="1024.000000pt" height="1024.000000pt" viewBox="0 0 1024.000000 1024.000000"
 preserveAspectRatio="xMidYMid meet">
<metadata>
Created by potrace 1.11, written by Peter Selinger 2001-2013
</metadata>
<g transform="translate(0.000000,1024.000000) scale(0.100000,-0.100000)"
fill="#000000" stroke="none">
<path d="M4889 9439 c-558 -32 -1081 -162 -1586 -393 -373 -171 -814 -464
-1122 -745 -357 -326 -722 -814 -954 -1276 -65 -131 -193 -450 -247 -616 -74
-227 -143 -567 -177 -871 -25 -227 -22 -646 7 -878 41 -341 66 -470 136 -707
181 -617 389 -1024 783 -1533 243 -313 607 -650 960 -888 534 -361 1110 -590
1741 -692 345 -55 850 -71 1165 -36 856 96 1654 435 2315 984 698 581 1204
1383 1425 2259 86 343 109 517 130 998 10 219 -20 558 -79 885 -110 616 -413
1301 -785 1775 -266 339 -495 578 -757 789 -184 148 -552 381 -780 495 -548
272 -1099 416 -1729 451 -207 11 -244 11 -446 -1z m-94 -1187 c38 -22 54 -48
244 -413 l204 -389 149 0 c163 0 200 -8 236 -55 26 -33 29 -92 7 -134 -22 -44
-70 -61 -169 -61 -47 0 -86 -2 -86 -6 0 -3 41 -84 91 -180 l91 -174 188 0
c187 0 189 0 219 -25 60 -51 62 -132 5 -186 -23 -22 -36 -24 -154 -29 l-129
-5 213 -408 c118 -224 220 -415 227 -424 13 -14 86 -15 824 -11 445 3 846 1
889 -4 355 -39 735 -199 806 -338 24 -46 26 -110 5 -149 -57 -112 -294 -234
-580 -301 -209 -49 -242 -50 -1118 -50 l-825 0 -221 -422 -220 -423 129 -5
c119 -5 130 -7 154 -29 39 -37 52 -88 33 -134 -29 -69 -57 -77 -264 -77 l-182
0 -90 -174 c-50 -95 -91 -176 -91 -180 0 -3 41 -6 90 -6 133 0 180 -32 180
-124 0 -36 -6 -52 -29 -78 l-29 -33 -174 -5 -173 -5 -195 -372 c-107 -204
-205 -385 -217 -401 -39 -53 -75 -62 -237 -62 -80 0 -146 4 -146 9 0 5 99 330
220 722 171 554 224 739 236 824 13 83 18 216 21 543 l5 432 -809 0 c-807 0
-808 0 -978 25 -93 13 -222 35 -286 48 l-117 24 -128 -201 c-310 -486 -544
-834 -582 -863 -18 -15 -90 -17 -110 -4 -11 7 22 129 162 594 97 323 176 591
176 596 0 6 -35 28 -78 51 -116 61 -152 98 -152 157 0 45 57 99 155 148 41 20
75 41 75 46 0 5 -79 273 -176 595 -110 367 -172 590 -166 596 5 5 33 8 63 6
l54 -3 222 -335 c123 -184 280 -424 350 -533 l128 -197 35 4 c19 2 109 18 200
35 319 59 352 61 1193 61 l769 0 -5 438 c-4 388 -7 448 -25 539 -11 56 -113
407 -227 780 -114 373 -213 698 -221 721 l-13 44 157 -4 c142 -3 161 -5 197
-26z"/>
<path d="M7920 5330 l0 -281 62 33 c83 44 143 103 157 153 17 63 14 174 -7
215 -18 37 -86 93 -164 135 l-48 26 0 -281z"/>
</g>
</svg>
